<?xml version="1.0" encoding="utf-8"?>
<!-- Generator: Adobe Illustrator 19.0.0, SVG Export Plug-In . SVG Version: 6.00 Build 0)  -->
<svg version="1.1" id="Layer_1" xmlns="http://www.w3.org/2000/svg" xmlns:xlink="http://www.w3.org/1999/xlink" x="0px" y="0px"
	 viewBox="380 11 1200 580" style="enable-background:new 380 11 1200 580;" xml:space="preserve">
<style type="text/css">
	.st0{display:none;fill:#DCDCDC;}
	.st1{display:none;fill:#050500;}
	.st2{display:none;fill:#E6C0BE;}
	.st3{display:none;fill:#DEBEBC;}
	.st4{display:none;fill:#D6A9A7;}
	.st5{display:none;fill:#CE908F;}
	.st6{display:none;fill:#C77479;}
	.st7{display:none;fill:#BF555A;}
	.st8{display:none;fill:#B7484F;}
	.st9{display:none;fill:#AF3B46;}
	.st10{display:none;fill:#A82B36;}
	.st11{display:none;fill:#A0151F;}
	.st12{display:none;fill:#98000A;}
	.st13{fill:#F90629;}
	.st14{fill:#FBDEDA;}
	.st15{fill:#050100;}
	.st16{fill:#000405;}
	.st17{fill:#000202;}
</style>
<path class="st0" d="M1859.7,250c-16.7-53-42.7-68.7-77.9-47.1c-52.8,32.5-151.6,133.4-220.1,151.6
	c-68.5,18.2-164.7,173-134.4,240.8c30.3,67.7,71.7,178.1,264.8-40.7C1820.8,408.7,1876.7,307.2,1859.7,250L1859.7,250z"/>
<path class="st1" d="M2068.6-128.7c-112.8-73.7-226.9-70.7-342.4,8.9c-173.1,119.4-459.7,413.4-706.1,526.1
	c-246.4,112.7-473.4,498.6-295,582.1c178.4,83.6,438.6,229.1,979.4-383.6C2065.1,196.3,2186.4-48.2,2068.6-128.7L2068.6-128.7z"/>
<path class="st2" d="M2070.4-84.7c-100.6-76.7-204.8-78.2-312.5-4.7C1596.4,21,1326.1,298.2,1098,399
	C869.9,499.9,651.1,869.6,811.2,958.5c160.1,89,393,241.9,904.8-337.9C2057.2,234,2175.3-1.1,2070.4-84.7L2070.4-84.7z"/>
<path class="st3" d="M2037.9-70.3c-89.4-78.6-184.2-84-284.3-16.2c-150.3,101.7-404.4,362.3-615,452.2
	c-210.6,90-420.6,442.7-277.4,535.6c143.2,92.8,350.8,250.8,833.6-296.2C2016.7,240.4,2131,15.3,2037.9-70.3L2037.9-70.3z"/>
<path class="st4" d="M2021.8-40.2c-79-79.6-165-88.2-257.9-25.9c-139.3,93.5-377.5,337.5-571.3,417.4
	c-193.8,79.9-394.4,415.1-266.9,510.4c127.5,95.3,311.7,256.2,765.6-258C1993.9,260.9,2104,46.3,2021.8-40.2L2021.8-40.2z"/>
<path class="st5" d="M2005.2-9.6c-69.5-79.6-147.1-90.9-232.9-33.8c-128.7,85.5-351,313.2-528.7,383.8
	C1065.9,410.9,875.2,728,988.2,824.4c113,96.5,275.5,258.3,700.4-223.1C1971.9,280.4,2077.5,76.8,2005.2-9.6L2005.2-9.6z"/>
<path class="st6" d="M1988.3,21.4c-60.7-78.8-130.5-92.2-209.4-40.2c-118.4,77.9-324.9,289.4-487.1,351.4
	c-162.2,61.9-342.5,360.4-243,456.8c99.5,96.4,242.1,257.3,638-191.3C1950.7,299,2051.2,106.8,1988.3,21.4L1988.3,21.4z"/>
<path class="st7" d="M1970.9,52.9c-52.5-77.2-114.9-92.2-187.1-45.1c-108.3,70.7-299.2,266-446.5,320
	c-147.3,54-316.7,333.2-229.7,428.5c87,95.3,211.1,253.5,578.1-162.3C1930.3,316.9,2025.4,136.5,1970.9,52.9L1970.9,52.9z"/>
<path class="st8" d="M1953.2,84.8c-45.1-74.8-100.5-91-166.2-48.6c-98.5,63.7-273.8,243-406.8,289.6
	c-133,46.6-291.1,306.2-215.7,399.3c75.5,93.1,182.5,247,520.5-136C1910.5,333.9,1999.8,165.8,1953.2,84.8L1953.2,84.8z"/>
<path class="st9" d="M1932.6,114.9c-39.9-73.2-89.6-91-149.3-53.4c-89.6,56.4-249.6,219.7-370,258.3
	c-120.4,38.7-265.9,279.1-198.9,370.9c67,91.8,161.9,243,471-107.1C1891.4,350.2,1973.8,194,1932.6,114.9L1932.6,114.9z"/>
<path class="st10" d="M1916.7,149.8c-32-68-74.6-85.3-127.6-51.6c-79.6,50.4-224,198.1-329.8,231.8
	c-105.8,33.6-240.2,252.6-185.3,338.3c55,85.7,132,226.4,412.1-90.9C1872.9,365.8,1949.7,223.3,1916.7,149.8L1916.7,149.8z"/>
<path class="st11" d="M1898,182.9c-26.4-63.7-63-80.8-110-51.3c-70.5,44.2-199.6,176.2-292.5,204.2c-92.9,28-214.9,225.9-169,306.5
	c45.9,80.6,109.9,212.6,361-71.9C1854.9,380.8,1925.1,251.6,1898,182.9L1898,182.9z"/>
<path class="st12" d="M1879,216.3c-21.3-58.7-52.4-75.2-93.5-49.8c-61.6,38.2-175.5,154.7-255.9,177.5
	c-80.5,22.8-189.7,199.4-152,274c37.7,74.6,89.8,196.4,311.9-55.2C1837.6,395,1900.8,279.5,1879,216.3L1879,216.3z"/>
<g>
	<path class="st13" d="M647.3,556.6c-1.8-1.9-2.3-4.2-2.3-6.8c-0.2-26.2-0.4-52.4-0.7-78.6c-0.1-6.1,0.7-6.9,7-7
		c25.9-0.3,51.9-0.4,77.8-0.8c3,0,5.6,0.4,8.1,2c0.3,29,0.5,58,0.9,87c0,2.8-0.5,3.4-3.4,3.4C705.6,556,676.5,556.3,647.3,556.6z
		 M701.6,497.3c0.1,3.2,0.3,6.4,3.8,8.1c2.2,1,4.3,0.4,6.2-0.9c2.5-1.8,2.6-4.5,2.7-7.2c2.2,0,4.4,0.2,6.5-0.1
		c2.5-0.2,3.9-1.8,3.9-4.3c-0.1-2.5-1.4-4-4-4.1c-2.2-0.1-4.3,0.1-6.5,0.1c-0.3-6.1-2.8-9-7.4-8.1c-4.7,0.9-5.2,4.5-5.1,8.3
		c-2.2-0.1-4.4-0.2-6.6-0.1c-2.6,0.1-4.1,1.5-4.2,4c-0.1,2.8,1.4,4.4,4.2,4.6C697.2,497.7,699.4,497.4,701.6,497.3z M674,539.1
		c1.5,0.1,3,0.2,4.6,0.2c7.4-0.2,12.5-5.2,12.5-12.3c0-7.3-5.2-12.6-12.7-12.7c-1.5,0-3.1,0.1-4.6,0.1c-11.8-2.3-19.4,8.9-15.7,17.2
		C660.7,537.3,665.2,539.6,674,539.1z M724.8,526.5c-0.1-12.7-0.1-12.7-13.2-12.6c-12.2,0.1-12.2,0.1-12.1,12.3
		c0.1,12.9,0.1,12.9,13,12.8C724.9,538.9,724.9,538.9,724.8,526.5z M657,493.5c-0.1,6.8,5.5,12.5,12.4,12.7c7.2,0.2,13-5.4,13-12.5
		c0-7.1-5.3-12.5-12.3-12.6C662.8,480.9,657.1,486.4,657,493.5z"/>
	<path class="st14" d="M724.8,526.5c0.1,12.4,0.1,12.4-12.2,12.5c-12.9,0.1-12.9,0.1-13-12.8c-0.1-12.2-0.1-12.2,12.1-12.3
		C724.7,513.8,724.7,513.8,724.8,526.5z M712.1,533.2c8.7-0.1,8.8-0.1,4.5-7c-1.3-2.2-1.7-6-4.6-5.9c-2.3,0.1-2.9,3.7-4.1,5.8
		C703.7,533.2,703.8,533.2,712.1,533.2z"/>
	<path class="st15" d="M674,539.1c-8.9,0.5-13.3-1.8-15.9-7.5c-3.7-8.4,3.9-19.6,15.7-17.2C687.4,521.3,684,535,674,539.1z"/>
	<path class="st14" d="M657,493.5c0.1-7.1,5.8-12.5,13.1-12.4c7.1,0.1,12.3,5.5,12.3,12.6c0,7.1-5.8,12.7-13,12.5
		C662.6,506,657,500.3,657,493.5z M669.8,487.2c-3.4,0-6.7,3.1-6.4,6.4c0.3,3.6,2.5,5.8,6.2,6.1c3.4,0.3,6.5-2.8,6.6-6.2
		C676.2,490.1,673.3,487.2,669.8,487.2z"/>
	<path class="st16" d="M701.6,489.2c-0.1-3.9,0.4-7.4,5.1-8.3c4.5-0.9,7,2,7.4,8.1c0,2.8,0.1,5.6,0.1,8.4c-0.1,2.7-0.2,5.4-2.7,7.2
		c-1.9,1.3-4,1.9-6.2,0.9c-3.5-1.6-3.6-4.9-3.8-8.1C701.6,494.6,701.6,491.9,701.6,489.2z"/>
	<path class="st14" d="M674,539.1c10-4.1,13.4-17.8-0.2-24.7c1.5-0.1,3.1-0.2,4.6-0.1c7.5,0.1,12.7,5.4,12.7,12.7
		c0,7.1-5.2,12.2-12.5,12.3C677.1,539.4,675.5,539.2,674,539.1z"/>
	<path class="st14" d="M701.6,489.2c0,2.7,0,5.5,0,8.2c-2.2,0.1-4.4,0.4-6.6,0.3c-2.8-0.1-4.4-1.8-4.2-4.6c0.1-2.5,1.7-3.9,4.2-4
		C697.2,489,699.4,489.1,701.6,489.2z"/>
	<path class="st14" d="M714.2,497.3c0-2.8-0.1-5.6-0.1-8.4c2.2,0,4.3-0.2,6.5-0.1c2.6,0.1,3.9,1.6,4,4.1c0.1,2.6-1.4,4.1-3.9,4.3
		C718.6,497.5,716.4,497.3,714.2,497.3z"/>
	<path class="st17" d="M712.1,533.2c-8.2,0.1-8.3,0-4.2-7c1.2-2.1,1.8-5.8,4.1-5.8c2.8-0.1,3.3,3.7,4.6,5.9
		C720.9,533,720.8,533.1,712.1,533.2z"/>
	<path class="st17" d="M669.8,487.2c3.6,0,6.4,2.9,6.4,6.4c0,3.4-3.2,6.5-6.6,6.2c-3.7-0.3-5.9-2.5-6.2-6.1
		C663.1,490.4,666.4,487.3,669.8,487.2z"/>
</g>
<image style="overflow:visible;" width="423" height="423" xlink:href="../../../../../Library/Mobile Documents/com~apple~CloudDocs/qMRLab/qMRLab Designs/am.png"  transform="matrix(0.2237 0 0 0.2218 743.853 360.39)">
</image>
<image style="overflow:visible;" width="454" height="424" xlink:href="../../../../../Library/Mobile Documents/com~apple~CloudDocs/qMRLab/qMRLab Designs/Untitled-3.png"  transform="matrix(0.2175 0 0 0.2237 640.9252 360.8866)">
</image>
<g id="EEw3dI.tif">
	
		<image style="overflow:visible;" width="170" height="93" id="Layer_0" xlink:href="3A2430DFD6435047.png"  transform="matrix(0.5565 0 0 0.554 748.853 482.483)">
	</image>
</g>
<g>
	<polygon points="747.4,26.5 743.9,571.5 740.4,26.5 	"/>
</g>
<g>
	<path d="M573.5,457.8c0,0,3.9-0.1,11.3-0.3c7.4-0.2,18.2-0.4,31.9-0.7c6.9-0.1,14.5-0.2,22.8-0.4c8.3-0.1,17.3-0.2,26.8-0.4
		c19.2-0.2,40.8-0.4,64.4-0.6c23.6-0.1,49.1-0.2,76.2-0.1c6.8,0,13.6,0.1,20.5,0.2c6.9,0.1,14,0.2,21,0.3
		c14.2,0.2,28.7,0.4,43.4,0.6c29.5,0.5,60,0.7,90.9,0.7c7.7,0,15.5,0,23.3-0.1c7.8,0,15.6-0.1,23.4-0.1c15.7-0.2,31.4-0.3,47.1-0.5
		c15.7-0.2,31.5-0.4,47.1-0.6c15.7-0.1,31.3-0.3,46.7-0.4c31-0.2,61.4-0.3,90.9-0.5c14.7-0.1,29.2-0.1,43.4-0.1c7.1,0,14.1,0,21,0
		c6.9,0,13.8,0.1,20.5,0.1c13.5,0.1,26.7,0.1,39.4,0.2c12.7,0.1,25,0.2,36.8,0.3c23.6,0.2,45.2,0.4,64.4,0.7
		c19.2,0.3,35.9,0.5,49.6,0.7c13.8,0.3,24.6,0.5,31.9,0.6c7.4,0.2,11.3,0.3,11.3,0.3v0.6c0,0-3.9,0.1-11.3,0.3
		c-7.4,0.1-18.2,0.4-31.9,0.6c-13.8,0.3-30.5,0.5-49.6,0.7c-19.2,0.3-40.8,0.5-64.4,0.7c-11.8,0.1-24.1,0.2-36.8,0.3
		c-12.7,0.1-25.9,0.1-39.4,0.2c-6.8,0-13.6,0.1-20.5,0.1c-6.9,0-14,0-21,0c-14.2,0-28.7,0-43.4-0.1c-29.5-0.2-60-0.3-90.9-0.5
		c-15.5-0.1-31.1-0.3-46.7-0.4c-15.7-0.2-31.4-0.4-47.1-0.6c-15.7-0.2-31.5-0.3-47.1-0.5c-7.8,0-15.6-0.1-23.4-0.1
		c-7.8,0-15.6,0-23.3-0.1c-31,0-61.4,0.2-90.9,0.7c-14.7,0.2-29.2,0.4-43.4,0.6c-7.1,0.1-14.1,0.2-21,0.3
		c-6.9,0.1-13.8,0.1-20.5,0.2c-27,0.1-52.6,0-76.2-0.1c-23.6-0.2-45.2-0.3-64.4-0.5c-9.6-0.1-18.6-0.2-26.8-0.4
		c-8.3-0.1-15.9-0.3-22.8-0.4c-13.8-0.3-24.6-0.5-31.9-0.7c-7.4-0.2-11.3-0.3-11.3-0.3V457.8z"/>
</g>
</svg>
